# xmcd
#
# Track frame offsets: 
#        150
#        10221
#        21255
#        33993
#        45797
#        58052
#        68028
#        78792
#        89143
#        101460
#        112557
#        124554
#        136611
#        146539
#        157858
#        166073
#        173660
#        183762
#        195730
#        205414
#
# Disc length: 2882 seconds
#
# Revision: 0
# Processed by: cddbd v1.5.2PL0 Copyright (c) Steve Scherf et al.
# Submitted via: ExactAudioCopy v1.1
#
DISCID=ed0b4014
DTITLE=Johnny Cash - The Sun Singles Collection [CD 1)
DYEAR=2014
DGENRE=Country
TTITLE0=Hey Porter
TTITLE1=Cry! Cry! Cry!
TTITLE2=Folsom Prison Blues
TTITLE3=So Doggone Lonesome
TTITLE4=I Walk The Line
TTITLE5=Get Rhythm
TTITLE6=Train Of Love
TTITLE7=There You Go
TTITLE8=Next In Line
TTITLE9=Don't Make Me Go
TTITLE10=Home Of The Blues
TTITLE11=Give My Love To Rose
TTITLE12=Ballad Of A Teenage Queen
TTITLE13=Big River
TTITLE14=Guess Things Happen That Way
TTITLE15=Come In Stranger
TTITLE16=The Ways Of A Woman In Love
TTITLE17=You're The Nearest Thing To Heaven
TTITLE18=It's Just About Time
TTITLE19=I Just Thought You'd Like To Know
EXTD=
EXTT0=
EXTT1=
EXTT2=
EXTT3=
EXTT4=
EXTT5=
EXTT6=
EXTT7=
EXTT8=
EXTT9=
EXTT10=
EXTT11=
EXTT12=
EXTT13=
EXTT14=
EXTT15=
EXTT16=
EXTT17=
EXTT18=
EXTT19=
PLAYORDER=
